<?xml version="1.0" standalone="no"?>
<!DOCTYPE svg PUBLIC "-//W3C//DTD SVG 1.1//EN" "http://www.w3.org/Graphics/SVG/1.1/DTD/svg11.dtd" >
<svg xmlns="http://www.w3.org/2000/svg">
<metadata></metadata>
<defs>
<font id="shapeshiftersregular" horiz-adv-x="1100" >
<font-face units-per-em="2048" ascent="1638" descent="-410" />
<missing-glyph horiz-adv-x="508" />
<glyph unicode="&#xd;" horiz-adv-x="508" />
<glyph horiz-adv-x="0" />
<glyph horiz-adv-x="0" />
<glyph unicode=" "  horiz-adv-x="508" />
<glyph unicode="&#x09;" horiz-adv-x="508" />
<glyph unicode="&#xa0;" horiz-adv-x="508" />
<glyph unicode="!" horiz-adv-x="600" d="M0 0v350h500v-350h-500zM0 450v950h500v-950h-500z" />
<glyph unicode="&#x22;" horiz-adv-x="1200" d="M0 950v450h500v-650zM600 750v650h500v-450z" />
<glyph unicode="#" horiz-adv-x="1300" d="M0 150v400h150v100h-150v400h150v150h400v-150h100v150h400v-150h150v-400h-150v-100h150v-400h-150v-150h-400v150h-100v-150h-400v150h-150zM550 550h100v100h-100v-100z" />
<glyph unicode="$" d="M0 0v300h500q21 0 35.5 14.5t14.5 35.5t-14.5 35.5t-35.5 14.5h-500v100q0 207 147 354q48 48 103 80v216h200v-152q25 2 50 2h50v150h200v-150h250v-300h-500q-21 0 -35.5 -14.5t-14.5 -35.5t14.5 -35.5t35.5 -14.5h500v-100q0 -207 -146 -353q-49 -49 -104 -81v-216 h-200v152q-25 -2 -50 -2h-50v-150h-200v150h-250z" />
<glyph unicode="%" d="M0 0v600h500q21 0 35.5 14.5t14.5 35.5v350h450v-600h-500q-21 0 -35.5 -14.5t-14.5 -35.5v-350h-450zM0 700v300h450v-300h-450zM550 0v300h450v-300h-450z" />
<glyph unicode="&#x26;" horiz-adv-x="1300" d="M0 500q0 207 146.5 353.5t353.5 146.5h200v-300h-200q-21 0 -35.5 -14.5t-14.5 -35.5t14.5 -35.5t35.5 -14.5h300v150l300 100v-250h100v-200h-100v-100h100v-300h-700q-207 0 -353.5 146.5t-146.5 353.5zM450 350q0 -21 14.5 -35.5t35.5 -14.5h300v100h-300 q-21 0 -35.5 -14.5t-14.5 -35.5z" />
<glyph unicode="'" horiz-adv-x="600" d="M0 750v650h500v-450z" />
<glyph unicode="(" horiz-adv-x="600" d="M0 500q0 207 146.5 353.5t353.5 146.5v-450q-21 0 -35.5 -14.5t-14.5 -35.5t14.5 -35.5t35.5 -14.5v-450q-207 0 -353.5 146.5t-146.5 353.5z" />
<glyph unicode=")" horiz-adv-x="600" d="M0 0v450q21 0 35.5 14.5t14.5 35.5t-14.5 35.5t-35.5 14.5v450q207 0 353.5 -146.5t146.5 -353.5t-146.5 -353.5t-353.5 -146.5z" />
<glyph unicode="*" horiz-adv-x="1000" d="M0 700v500h200v200h500v-200h200v-500h-200v-200h-500v200h-200z" />
<glyph unicode="+" horiz-adv-x="1000" d="M0 250v500h200v200h500v-200h200v-500h-200v-200h-500v200h-200z" />
<glyph unicode="," horiz-adv-x="600" d="M0 -150v650h500v-450z" />
<glyph unicode="-" horiz-adv-x="1000" d="M0 250v500h900v-500h-900z" />
<glyph unicode="." horiz-adv-x="600" d="M0 0v500h500v-500h-500z" />
<glyph unicode="/" d="M0 0v600h500q21 0 35.5 14.5t14.5 35.5v350h450v-600h-500q-21 0 -35.5 -14.5t-14.5 -35.5v-350h-450z" />
<glyph unicode="0" d="M0 500q0 207 146.5 353.5t353.5 146.5t353.5 -146.5t146.5 -353.5t-146.5 -353.5t-353.5 -146.5t-353.5 146.5t-146.5 353.5z" />
<glyph unicode="1" horiz-adv-x="600" d="M0 0v1000h500v-1000h-500z" />
<glyph unicode="2" d="M0 500v100h500q21 0 35.5 14.5t14.5 35.5t-14.5 35.5t-35.5 14.5h-500v300h500q207 0 353.5 -146.5t146.5 -353.5v-100h-500q-21 0 -35.5 -14.5t-14.5 -35.5t14.5 -35.5t35.5 -14.5h500v-300h-500q-207 0 -353.5 146.5t-146.5 353.5z" />
<glyph unicode="3" d="M0 0v300h500q21 0 35.5 14.5t14.5 35.5t-14.5 35.5t-35.5 14.5h-500v200h500q21 0 35.5 14.5t14.5 35.5t-14.5 35.5t-35.5 14.5h-500v300h500q207 0 353.5 -146.5t146.5 -353.5t-146.5 -353.5t-353.5 -146.5h-500z" />
<glyph unicode="4" horiz-adv-x="1099" d="M-1 900v100h450v-100q0 -21 14.5 -35.5t35.5 -14.5t35.5 14.5t14.5 35.5l1 100l449 1v-101q0 -207 -146.5 -353.5t-353.5 -146.5t-353.5 146.5t-146.5 353.5zM549 0v1000h450v-1000h-450z" />
<glyph unicode="5" d="M0 0v300h500q21 0 35.5 14.5t14.5 35.5t-14.5 35.5t-35.5 14.5h-500v100q0 207 146.5 353.5t353.5 146.5h500v-300h-500q-21 0 -35.5 -14.5t-14.5 -35.5t14.5 -35.5t35.5 -14.5h500v-100q0 -207 -146.5 -353.5t-353.5 -146.5h-500z" />
<glyph unicode="6" d="M0 500q0 207 146.5 353.5t353.5 146.5h500v-300h-500q-21 0 -35.5 -14.5t-14.5 -35.5t14.5 -35.5t35.5 -14.5h500v-100q0 -207 -146.5 -353.5t-353.5 -146.5t-353.5 146.5t-146.5 353.5z" />
<glyph unicode="7" d="M0 0v600h500q21 0 35.5 14.5t14.5 35.5t-14.5 35.5t-35.5 14.5h-500v300h500q207 0 353.5 -146.5t146.5 -353.5v-100h-500q-21 0 -35.5 -14.5t-14.5 -35.5v-350h-450z" />
<glyph unicode="8" d="M0 500q0 207 146.5 353.5t353.5 146.5t353.5 -146.5t146.5 -353.5t-146.5 -353.5t-353.5 -146.5t-353.5 146.5t-146.5 353.5zM450 350q0 -21 14.5 -35.5t35.5 -14.5t35.5 14.5t14.5 35.5t-14.5 35.5t-35.5 14.5t-35.5 -14.5t-14.5 -35.5zM450 650q0 -21 14.5 -35.5 t35.5 -14.5t35.5 14.5t14.5 35.5t-14.5 35.5t-35.5 14.5t-35.5 -14.5t-14.5 -35.5z" />
<glyph unicode="9" d="M0 0v300h500q21 0 35.5 14.5t14.5 35.5t-14.5 35.5t-35.5 14.5h-500v100q0 207 146.5 353.5t353.5 146.5t353.5 -146.5t146.5 -353.5t-146.5 -353.5t-353.5 -146.5h-500z" />
<glyph unicode=":" horiz-adv-x="600" d="M0 0v500h500v-500h-500zM0 524v500h500v-500h-500z" />
<glyph unicode=";" horiz-adv-x="600" d="M0 -150v650h500v-450zM0 524v500h500v-500h-500z" />
<glyph unicode="&#x3c;" horiz-adv-x="600" d="M0 500q0 207 146.5 353.5t353.5 146.5v-450q-21 0 -35.5 -14.5t-14.5 -35.5t14.5 -35.5t35.5 -14.5v-450q-207 0 -353.5 146.5t-146.5 353.5z" />
<glyph unicode="=" horiz-adv-x="1000" d="M0 50v400h900v-400h-900zM0 550v400h900v-400h-900z" />
<glyph unicode="&#x3e;" horiz-adv-x="600" d="M0 0v450q21 0 35.5 14.5t14.5 35.5t-14.5 35.5t-35.5 14.5v450q207 0 353.5 -146.5t146.5 -353.5t-146.5 -353.5t-353.5 -146.5z" />
<glyph unicode="?" d="M0 0v250h450v-250h-450zM0 350v250h500q21 0 35.5 14.5t14.5 35.5t-14.5 35.5t-35.5 14.5h-500v300h500q207 0 353.5 -146.5t146.5 -353.5v-100h-500q-21 0 -35.5 -14.5t-14.5 -35.5h-450z" />
<glyph unicode="@" d="M0 500q0 207 146.5 353.5t353.5 146.5t353.5 -146.5t146.5 -353.5t-146.5 -353.5t-353.5 -146.5t-353.5 146.5t-146.5 353.5z" />
<glyph unicode="A" d="M0 500q0 207 146.5 353.5t353.5 146.5t353.5 -146.5t146.5 -353.5v-500h-500q-207 0 -353.5 146.5t-146.5 353.5z" />
<glyph unicode="B" d="M0 500v900h500v-400q207 0 353.5 -146.5t146.5 -353.5t-146.5 -353.5t-353.5 -146.5t-353.5 146.5t-146.5 353.5z" />
<glyph unicode="C" d="M0 500q0 207 146.5 353.5t353.5 146.5t354 -146q128 -129 144 -304h-498q-21 0 -35.5 -14.5t-14.5 -35.5t14.5 -35.5t35.5 -14.5h498q-16 -175 -144 -303q-147 -147 -354 -147t-353.5 146.5t-146.5 353.5z" />
<glyph unicode="D" d="M0 500q0 207 146.5 353.5t353.5 146.5v400h500v-900q0 -207 -146.5 -353.5t-353.5 -146.5t-353.5 146.5t-146.5 353.5z" />
<glyph unicode="E" d="M0 500q0 207 146.5 353.5t353.5 146.5t353.5 -146.5t146.5 -353.5v-100h-500q-21 0 -35.5 -14.5t-14.5 -35.5t14.5 -35.5t35.5 -14.5h500v-300h-500q-207 0 -353.5 146.5t-146.5 353.5z" />
<glyph unicode="F" horiz-adv-x="900" d="M0 0v900q0 207 146.5 353.5t353.5 146.5h300v-500h-250q-21 0 -35.5 -14.5t-14.5 -35.5t14.5 -35.5t35.5 -14.5h250v-500h-300v-300h-500z" />
<glyph unicode="G" d="M0 500q0 207 146.5 353.5t353.5 146.5h500v-900q0 -207 -146.5 -353.5t-353.5 -146.5v400q-207 0 -353.5 146.5t-146.5 353.5z" />
<glyph unicode="H" d="M0 0v1400h500v-400q207 0 353.5 -146.5t146.5 -353.5v-500h-1000z" />
<glyph unicode="I" horiz-adv-x="600" d="M0 0v1000h500v-1000h-500zM0 1100v300h500v-300h-500z" />
<glyph unicode="J" horiz-adv-x="600" d="M0 -400v1400h500v-900q0 -207 -146.5 -353.5t-353.5 -146.5zM0 1100v300h500v-300h-500z" />
<glyph unicode="K" horiz-adv-x="1050" d="M0 0v1400h450v-599q21 27 47 53q146 146 353 146h100v-450h-100q-21 0 -35.5 -14.5t-14.5 -35.5t14.5 -35.5t35.5 -14.5l100 -1l1 -449h-101q-207 0 -353 147q-26 25 -47 52v-199h-450z" />
<glyph unicode="L" horiz-adv-x="600" d="M0 0v1400h500v-1400h-500z" />
<glyph unicode="M" horiz-adv-x="1650" d="M-1 501q0 207 146.5 353.5t353.5 146.5q155 0 275 -82q121 82 276 82q207 0 353.5 -146.5t146.5 -353.5v-500l-449 -1v500q-1 22 -15.5 36.5t-34.5 14.5q-22 0 -36.5 -14.5t-14.5 -35.5l1 -500l-450 -1h-1v500q-1 22 -15.5 36.5t-34.5 14.5q-22 0 -36.5 -14.5 t-14.5 -35.5l1 -500l-450 -1z" />
<glyph unicode="N" d="M-1 501q0 207 146.5 353.5t353.5 146.5t353.5 -146.5t146.5 -353.5v-500l-449 -1v500q-1 22 -15.5 36.5t-34.5 14.5q-22 0 -36.5 -14.5t-14.5 -35.5l1 -500l-450 -1z" />
<glyph unicode="O" d="M0 500q0 207 146.5 353.5t353.5 146.5t353.5 -146.5t146.5 -353.5t-146.5 -353.5t-353.5 -146.5t-353.5 146.5t-146.5 353.5z" />
<glyph unicode="P" d="M0 -400v900q0 207 146.5 353.5t353.5 146.5t353.5 -146.5t146.5 -353.5t-146.5 -353.5t-353.5 -146.5v-400h-500z" />
<glyph unicode="Q" d="M0 500q0 207 146.5 353.5t353.5 146.5t353.5 -146.5t146.5 -353.5v-900h-500v400q-207 0 -353.5 146.5t-146.5 353.5z" />
<glyph unicode="R" horiz-adv-x="900" d="M0 0v500q0 207 146.5 353.5t353.5 146.5h300v-500h-300v-500h-500z" />
<glyph unicode="S" d="M0 0v300h500q21 0 35.5 14.5t14.5 35.5t-14.5 35.5t-35.5 14.5h-500v100q0 207 146.5 353.5t353.5 146.5h500v-300h-500q-21 0 -35.5 -14.5t-14.5 -35.5t14.5 -35.5t35.5 -14.5h500v-100q0 -207 -146.5 -353.5t-353.5 -146.5h-500z" />
<glyph unicode="T" horiz-adv-x="900" d="M0 500v900h500v-300h300v-500h-250q-21 0 -35.5 -14.5t-14.5 -35.5t14.5 -35.5t35.5 -14.5h250v-500h-300q-207 0 -353.5 146.5t-146.5 353.5z" />
<glyph unicode="U" d="M-1 500l1 500h450l-1 -500q0 -21 14.5 -35.5t36.5 -14.5q20 0 34.5 14.5t15.5 36.5v499h450v-500q-1 -207 -147.5 -353.5t-353.5 -146.5t-353.5 146.5t-146.5 353.5z" />
<glyph unicode="V" d="M0 300v700h450v-450q0 -21 14.5 -35.5t36.5 -14.5q20 0 34.5 14.5t15.5 36.5l-1 450l450 -1v-700l-501 -300z" />
<glyph unicode="W" horiz-adv-x="1650" d="M-1 500l1 500h450l-1 -500q0 -21 14.5 -35.5t36.5 -14.5q20 0 34.5 14.5t15.5 36.5v500l450 -1v-500q0 -21 14.5 -35.5t36.5 -14.5q20 0 34.5 14.5t15.5 36.5v500l449 -1v-500q0 -207 -146.5 -353.5t-353.5 -146.5q-155 0 -276 82q-120 -82 -275 -82q-207 0 -353.5 146.5 t-146.5 353.5z" />
<glyph unicode="X" horiz-adv-x="1050" d="M0 0l1 449l100 1q21 0 35.5 14.5t14.5 35.5t-14.5 35.5t-35.5 14.5h-100v450h100q207 0 354 -146q10 -11 21 -23q10 12 21 23q146 146 353 146h100v-450h-100q-21 0 -35.5 -14.5t-14.5 -35.5t14.5 -35.5t35.5 -14.5l100 -1l1 -449h-101q-207 0 -353 147q-11 10 -21 22 q-11 -12 -21 -22q-147 -147 -354 -147h-101z" />
<glyph unicode="Y" d="M0 500v500h1000v-1400h-500v400q-207 0 -353.5 146.5t-146.5 353.5z" />
<glyph unicode="Z" d="M0 500v100h500q21 0 35.5 14.5t14.5 35.5t-14.5 35.5t-35.5 14.5h-500v300h500q207 0 353.5 -146.5t146.5 -353.5v-100h-500q-21 0 -35.5 -14.5t-14.5 -35.5t14.5 -35.5t35.5 -14.5h500v-300h-500q-207 0 -353.5 146.5t-146.5 353.5z" />
<glyph unicode="[" horiz-adv-x="600" d="M0 500q0 207 146.5 353.5t353.5 146.5v-450q-21 0 -35.5 -14.5t-14.5 -35.5t14.5 -35.5t35.5 -14.5v-450q-207 0 -353.5 146.5t-146.5 353.5z" />
<glyph unicode="\" d="M0 400v600h450v-350q0 -21 14.5 -35.5t35.5 -14.5h500v-600h-450v350q0 21 -14.5 35.5t-35.5 14.5h-500z" />
<glyph unicode="]" horiz-adv-x="600" d="M0 0v450q21 0 35.5 14.5t14.5 35.5t-14.5 35.5t-35.5 14.5v450q207 0 353.5 -146.5t146.5 -353.5t-146.5 -353.5t-353.5 -146.5z" />
<glyph unicode="^" d="M0 500q0 207 146.5 353.5t353.5 146.5t353.5 -146.5t146.5 -353.5t-146.5 -353.5t-353.5 -146.5t-353.5 146.5t-146.5 353.5z" />
<glyph unicode="_" horiz-adv-x="1000" d="M0 0v500h900v-500h-900z" />
<glyph unicode="`" horiz-adv-x="600" d="M0 750v650h500v-450z" />
<glyph unicode="a" d="M0 500q0 207 146.5 353.5t353.5 146.5t353.5 -146.5t146.5 -353.5v-500h-500q-207 0 -353.5 146.5t-146.5 353.5z" />
<glyph unicode="b" d="M0 500v900h500v-400q207 0 353.5 -146.5t146.5 -353.5t-146.5 -353.5t-353.5 -146.5t-353.5 146.5t-146.5 353.5z" />
<glyph unicode="c" d="M0 500q0 207 146.5 353.5t353.5 146.5t354 -146q128 -129 144 -304h-498q-21 0 -35.5 -14.5t-14.5 -35.5t14.5 -35.5t35.5 -14.5h498q-16 -175 -144 -303q-147 -147 -354 -147t-353.5 146.5t-146.5 353.5z" />
<glyph unicode="d" d="M0 500q0 207 146.5 353.5t353.5 146.5v400h500v-900q0 -207 -146.5 -353.5t-353.5 -146.5t-353.5 146.5t-146.5 353.5z" />
<glyph unicode="e" d="M0 500q0 207 146.5 353.5t353.5 146.5t353.5 -146.5t146.5 -353.5v-100h-500q-21 0 -35.5 -14.5t-14.5 -35.5t14.5 -35.5t35.5 -14.5h500v-300h-500q-207 0 -353.5 146.5t-146.5 353.5z" />
<glyph unicode="f" horiz-adv-x="900" d="M0 0v900q0 207 146.5 353.5t353.5 146.5h300v-500h-250q-21 0 -35.5 -14.5t-14.5 -35.5t14.5 -35.5t35.5 -14.5h250v-500h-300v-300h-500z" />
<glyph unicode="g" d="M0 500q0 207 146.5 353.5t353.5 146.5h500v-900q0 -207 -146.5 -353.5t-353.5 -146.5v400q-207 0 -353.5 146.5t-146.5 353.5z" />
<glyph unicode="h" d="M0 0v1400h500v-400q207 0 353.5 -146.5t146.5 -353.5v-500h-1000z" />
<glyph unicode="i" horiz-adv-x="600" d="M0 0v1000h500v-1000h-500zM0 1100v300h500v-300h-500z" />
<glyph unicode="j" horiz-adv-x="600" d="M0 -400v1400h500v-900q0 -207 -146.5 -353.5t-353.5 -146.5zM0 1100v300h500v-300h-500z" />
<glyph unicode="k" horiz-adv-x="1050" d="M0 0v1400h450v-599q21 27 47 53q146 146 353 146h100v-450h-100q-21 0 -35.5 -14.5t-14.5 -35.5t14.5 -35.5t35.5 -14.5l100 -1l1 -449h-101q-207 0 -353 147q-26 25 -47 52v-199h-450z" />
<glyph unicode="l" horiz-adv-x="600" d="M0 0v1400h500v-1400h-500z" />
<glyph unicode="m" horiz-adv-x="1650" d="M-1 501q0 207 146.5 353.5t353.5 146.5q155 0 275 -82q121 82 276 82q207 0 353.5 -146.5t146.5 -353.5v-500l-449 -1v500q-1 22 -15.5 36.5t-34.5 14.5q-22 0 -36.5 -14.5t-14.5 -35.5l1 -500l-450 -1h-1v500q-1 22 -15.5 36.5t-34.5 14.5q-22 0 -36.5 -14.5 t-14.5 -35.5l1 -500l-450 -1z" />
<glyph unicode="n" d="M-1 501q0 207 146.5 353.5t353.5 146.5t353.5 -146.5t146.5 -353.5v-500l-449 -1v500q-1 22 -15.5 36.5t-34.5 14.5q-22 0 -36.5 -14.5t-14.5 -35.5l1 -500l-450 -1z" />
<glyph unicode="o" d="M0 500q0 207 146.5 353.5t353.5 146.5t353.5 -146.5t146.5 -353.5t-146.5 -353.5t-353.5 -146.5t-353.5 146.5t-146.5 353.5z" />
<glyph unicode="p" d="M0 -400v900q0 207 146.5 353.5t353.5 146.5t353.5 -146.5t146.5 -353.5t-146.5 -353.5t-353.5 -146.5v-400h-500z" />
<glyph unicode="q" d="M0 500q0 207 146.5 353.5t353.5 146.5t353.5 -146.5t146.5 -353.5v-900h-500v400q-207 0 -353.5 146.5t-146.5 353.5z" />
<glyph unicode="r" horiz-adv-x="900" d="M0 0v500q0 207 146.5 353.5t353.5 146.5h300v-500h-300v-500h-500z" />
<glyph unicode="s" d="M0 0v300h500q21 0 35.5 14.5t14.5 35.5t-14.5 35.5t-35.5 14.5h-500v100q0 207 146.5 353.5t353.5 146.5h500v-300h-500q-21 0 -35.5 -14.5t-14.5 -35.5t14.5 -35.5t35.5 -14.5h500v-100q0 -207 -146.5 -353.5t-353.5 -146.5h-500z" />
<glyph unicode="t" horiz-adv-x="900" d="M0 500v900h500v-300h300v-500h-250q-21 0 -35.5 -14.5t-14.5 -35.5t14.5 -35.5t35.5 -14.5h250v-500h-300q-207 0 -353.5 146.5t-146.5 353.5z" />
<glyph unicode="u" d="M-1 500l1 500h450l-1 -500q0 -21 14.5 -35.5t36.5 -14.5q20 0 34.5 14.5t15.5 36.5v499h450v-500q-1 -207 -147.5 -353.5t-353.5 -146.5t-353.5 146.5t-146.5 353.5z" />
<glyph unicode="v" d="M0 300v700h450v-450q0 -21 14.5 -35.5t36.5 -14.5q20 0 34.5 14.5t15.5 36.5l-1 450l450 -1v-700l-501 -300z" />
<glyph unicode="w" horiz-adv-x="1650" d="M-1 500l1 500h450l-1 -500q0 -21 14.5 -35.5t36.5 -14.5q20 0 34.5 14.5t15.5 36.5v500l450 -1v-500q0 -21 14.5 -35.5t36.5 -14.5q20 0 34.5 14.5t15.5 36.5v500l449 -1v-500q0 -207 -146.5 -353.5t-353.5 -146.5q-155 0 -276 82q-120 -82 -275 -82q-207 0 -353.5 146.5 t-146.5 353.5z" />
<glyph unicode="x" horiz-adv-x="1050" d="M0 0l1 449l100 1q21 0 35.5 14.5t14.5 35.5t-14.5 35.5t-35.5 14.5h-100v450h100q207 0 354 -146q10 -11 21 -23q10 12 21 23q146 146 353 146h100v-450h-100q-21 0 -35.5 -14.5t-14.5 -35.5t14.5 -35.5t35.5 -14.5l100 -1l1 -449h-101q-207 0 -353 147q-11 10 -21 22 q-11 -12 -21 -22q-147 -147 -354 -147h-101z" />
<glyph unicode="y" d="M0 500v500h1000v-1400h-500v400q-207 0 -353.5 146.5t-146.5 353.5z" />
<glyph unicode="z" d="M0 500v100h500q21 0 35.5 14.5t14.5 35.5t-14.5 35.5t-35.5 14.5h-500v300h500q207 0 353.5 -146.5t146.5 -353.5v-100h-500q-21 0 -35.5 -14.5t-14.5 -35.5t14.5 -35.5t35.5 -14.5h500v-300h-500q-207 0 -353.5 146.5t-146.5 353.5z" />
<glyph unicode="{" horiz-adv-x="600" d="M0 500q0 207 146.5 353.5t353.5 146.5v-450q-21 0 -35.5 -14.5t-14.5 -35.5t14.5 -35.5t35.5 -14.5v-450q-207 0 -353.5 146.5t-146.5 353.5z" />
<glyph unicode="|" horiz-adv-x="600" d="M0 0v1400h500v-1400h-500z" />
<glyph unicode="}" horiz-adv-x="600" d="M0 0v450q21 0 35.5 14.5t14.5 35.5t-14.5 35.5t-35.5 14.5v450q207 0 353.5 -146.5t146.5 -353.5t-146.5 -353.5t-353.5 -146.5z" />
<glyph unicode="~" horiz-adv-x="1000" d="M0 250v500h900v-500h-900z" />
<glyph unicode="&#xad;" horiz-adv-x="1000" d="M0 250v500h900v-500h-900z" />
<glyph unicode="&#x2000;" horiz-adv-x="700" />
<glyph unicode="&#x2001;" horiz-adv-x="1400" />
<glyph unicode="&#x2002;" horiz-adv-x="700" />
<glyph unicode="&#x2003;" horiz-adv-x="1400" />
<glyph unicode="&#x2004;" horiz-adv-x="466" />
<glyph unicode="&#x2005;" horiz-adv-x="350" />
<glyph unicode="&#x2006;" horiz-adv-x="233" />
<glyph unicode="&#x2007;" horiz-adv-x="233" />
<glyph unicode="&#x2008;" horiz-adv-x="175" />
<glyph unicode="&#x2009;" horiz-adv-x="280" />
<glyph unicode="&#x200a;" horiz-adv-x="77" />
<glyph unicode="&#x2010;" horiz-adv-x="1000" d="M0 250v500h900v-500h-900z" />
<glyph unicode="&#x2011;" horiz-adv-x="1000" d="M0 250v500h900v-500h-900z" />
<glyph unicode="&#x2012;" horiz-adv-x="1000" d="M0 250v500h900v-500h-900z" />
<glyph unicode="&#x2013;" horiz-adv-x="1124" d="M0 250v500h1024v-500h-1024z" />
<glyph unicode="&#x2014;" horiz-adv-x="2148" d="M0 250v500h2048v-500h-2048z" />
<glyph unicode="&#x202f;" horiz-adv-x="280" />
<glyph unicode="&#x205f;" horiz-adv-x="350" />
<glyph unicode="&#x25fc;" horiz-adv-x="1000" d="M0 0v1000h1000v-1000h-1000z" />
</font>
</defs>
</svg>
