<?xml version="1.0" standalone="no"?>
<!DOCTYPE svg PUBLIC "-//W3C//DTD SVG 1.1//EN" "http://www.w3.org/Graphics/SVG/1.1/DTD/svg11.dtd" >
<svg xmlns="http://www.w3.org/2000/svg">
<metadata></metadata>
<defs>
<font id="neonregular" horiz-adv-x="985" >
<font-face units-per-em="2048" ascent="1638" descent="-410" />
<missing-glyph horiz-adv-x="32" />
<glyph horiz-adv-x="0" />
<glyph horiz-adv-x="682" />
<glyph unicode=" "  horiz-adv-x="32" />
<glyph unicode="&#x09;" horiz-adv-x="32" />
<glyph unicode="&#xa0;" horiz-adv-x="32" />
<glyph unicode="A" horiz-adv-x="1048" d="M45 467q0 96 37 180t99.5 147.5t147.5 99.5t181 36t181 -36t147.5 -99.5t98.5 -147.5t36 -180v-465h-463q-96 0 -181 36t-147.5 99.5t-99.5 148.5t-37 181zM74 467q0 -90 34.5 -170t94 -139.5t138.5 -94t169 -34.5h436v438q0 90 -33.5 169t-93 138.5t-139.5 94t-170 34.5 t-169 -34.5t-138.5 -94t-94 -138.5t-34.5 -169zM100 467q0 84 33 158.5t88 130t130 87t159 31.5q86 0 160.5 -31.5t130 -87t87.5 -130t32 -158.5v-412h-410q-84 0 -159 33t-130 88t-88 130t-33 161zM315 467q0 -82 55.5 -139.5t139.5 -57.5h192v197q0 80 -56 135t-136 55 q-84 0 -139.5 -55t-55.5 -135zM342 467q0 70 48 117t120 47q70 0 118 -47t48 -117v-168h-166q-72 0 -120 48t-48 120zM369 467q0 -59 41 -100t100 -41h137v141q0 57 -40 97t-97 40q-59 0 -100 -40t-41 -97z" />
<glyph unicode="B" horiz-adv-x="1030" d="M57 477v791h324v-312h141q96 0 181 -37.5t147.5 -102t98.5 -151.5t36 -188q0 -98 -36 -186t-98.5 -152.5t-147.5 -102.5t-181 -38t-181 38t-147.5 102.5t-99.5 152.5t-37 186zM84 477q0 -92 35 -174t94 -143.5t139 -97t170 -35.5t170 35.5t139.5 97t93 143.5t33.5 174 q0 94 -33.5 176t-93 143.5t-139.5 96.5t-170 35h-168v311h-270v-762zM113 477v735h215v-313h194q84 0 159 -32.5t130 -90t88 -134.5t33 -165t-33 -164.5t-88 -134t-130 -91.5t-159 -34t-158.5 34t-130 91.5t-88 134t-32.5 164.5zM328 477q0 -84 55 -141t139 -57q39 0 75 15 t61.5 41.5t41 63.5t15.5 78t-15.5 78t-41 63.5t-61.5 42t-75 15.5h-194v-199zM354 477v170h168q70 0 117 -49t47 -121t-47 -121t-117 -49q-72 0 -120 49.5t-48 120.5zM381 477q0 -59 41 -101t100 -42q57 0 97 42t40 101t-39.5 101.5t-97.5 42.5h-141v-144z" />
<glyph unicode="C" d="M37 475q0 88 33.5 176t103.5 158q68 72 155 106.5t179 34.5q90 0 177 -34.5t155 -106.5l114 -115l-217 -219l217 -217l-114 -117q-70 -70 -157 -104.5t-175 -34.5q-92 0 -178 35t-156 104q-70 70 -103.5 155t-33.5 179zM66 475q0 -90 30.5 -170t96.5 -145 q66 -66 147.5 -98.5t167.5 -32.5q84 0 166 32.5t147 98.5l97 98l-191 193l-102 -97q-23 -27 -52.5 -38t-64.5 -11q-70 0 -121 51q-27 25 -39 56.5t-12 66.5q0 31 12 60.5t37 52.5q53 53 123 53q66 0 121 -51h-2l98 -96l193 196l-97 97v-3q-66 66 -147.5 101t-165.5 35 q-86 0 -168 -35t-147 -101v3q-66 -66 -96.5 -148t-30.5 -168zM92 475q0 78 30 156t91 139q59 63 136 94t159 31q78 0 155.5 -30.5t137.5 -94.5l78 -76l-154 -155l-78 75q-59 57 -139 58q-82 0 -141 -60q-29 -27 -43.5 -61.5t-14.5 -71.5q0 -41 14.5 -77.5t43.5 -65.5 q59 -59 141 -60q39 0 73.5 14.5t63.5 45.5l80 78l154 -156l-78 -78q-59 -61 -137 -93t-156 -32q-82 0 -159 32t-136 93q-61 59 -91 135t-30 160zM365 479q0 -63 41 -106q41 -41 102 -41q29 0 54.5 9t43.5 32l107 100l-105 105v-3q-43 43 -100 43q-59 0 -105 -45 q-39 -37 -38 -94z" />
<glyph unicode="D" horiz-adv-x="1013" d="M18 492q0 100 37 189t101.5 155.5t151.5 105.5t186 39h143v317h330v-806q0 -102 -37 -191.5t-100.5 -155t-150.5 -104.5t-185 -39t-185.5 39t-152 104.5t-101.5 154.5t-37 192zM47 492q0 -96 35 -179.5t96.5 -147t142 -99t173.5 -35.5q92 0 174 35.5t142 99t95 146.5 t35 180v778h-274v-318h-172q-92 0 -173 -35.5t-142.5 -99t-96.5 -147.5t-35 -178zM74 492q0 88 32.5 166.5t90 138t134.5 93.5t163 34h198v319h221v-751q0 -90 -32.5 -169t-90 -138.5t-133 -93.5t-163.5 -34q-86 0 -163 34t-134.5 93.5t-90 138t-32.5 169.5zM295 492 q0 -43 15.5 -81t42 -66t62.5 -43t79 -15q41 0 76.5 15t63.5 43t43 66t15 81v202h-198q-86 0 -142.5 -58t-56.5 -144zM322 492q0 74 50 124t122 50h172v-174q0 -76 -50 -127.5t-122 -51.5t-122 51.5t-50 127.5zM348 492q0 -63 42.5 -106.5t103.5 -43.5q59 0 101 43t42 107 v145h-143q-61 0 -103.5 -42t-42.5 -103z" />
<glyph unicode="E" d="M37 471q0 92 33.5 178t103.5 158q70 70 156 104.5t178 34.5q88 0 175 -34.5t157 -104.5l114 -117l-217 -219l217 -217l-114 -117q-68 -68 -153 -103.5t-179 -35.5q-195 0 -334 139q-70 72 -103.5 158t-33.5 176zM63 471q0 -86 32 -167t98 -148q63 -63 143 -97t172 -34 q88 0 169 33.5t144 97.5l99 98l-195 197l-98 -99q-43 -43 -95 -49l388 387l-99 98q-66 66 -146.5 99t-166.5 33t-168 -33t-147 -99q-66 -66 -98 -148.5t-32 -168.5zM90 471q0 80 30 158t93 139q59 61 136 93t159 32q78 0 155.5 -32t137.5 -93l78 -78l-410 -414 q10 -2 19.5 -2h19.5q80 0 139 58l78 78l154 -156l-78 -78q-59 -59 -134 -91t-159 -32q-86 0 -161 32t-134 91q-63 63 -93 139t-30 156zM309 452.5q0 -8.5 4 -18.5l232 232q-23 6 -41 6q-78 -1 -137 -60q-57 -55 -58 -139v-20.5zM338 498q6 53 47 94h2q39 43 94 49z" />
<glyph unicode="F" horiz-adv-x="669" d="M45 2v809q0 100 35 189.5t95.5 156t141 104t172.5 37.5h154v-340h-154q-55 0 -93 -39.5t-42 -99.5h289v-340h-289v-477h-309zM72 31h258v477h288v283h-288v20q0 74 46 124t113 50h129v285h-129q-86 0 -161.5 -36t-133 -98.5t-90 -146.5t-32.5 -178v-780zM96 57v754 q0 88 31 167t85 138.5t126 93t151 33.5h103v-229h-103q-39 0 -72.5 -15.5t-59 -43t-40 -64.5t-14.5 -80v-47h289v-229h-289v-478h-207z" />
<glyph unicode="G" horiz-adv-x="1019" d="M29 492q0 100 36.5 189t101 155.5t152 105.5t185.5 39t184 -39t150.5 -105.5t101.5 -155.5t37 -189v-320q0 -100 -37 -189t-101.5 -155t-150.5 -104.5t-184 -38.5h-168v340h24q-72 23 -133 67.5t-105 106t-68.5 135.5t-24.5 158zM55 492q0 -96 35 -179.5t96.5 -147 t143.5 -99t174 -35.5h96q-45 -35 -96 -35h-142v-285h142q92 0 173 37t141.5 99.5t95 146.5t34.5 178v320q0 94 -34.5 178t-95 147.5t-141.5 99t-173 35.5t-174 -35.5t-143.5 -99t-96.5 -147.5t-35 -178zM82 492q0 88 32.5 166.5t90 138t134.5 93.5t165 34q86 0 162.5 -34 t133 -93.5t89.5 -138t33 -166.5v-320q0 -90 -33 -168t-89.5 -137.5t-133 -93t-162.5 -33.5h-113v227h113q47 0 91 26.5t71 63.5h-162q-88 0 -165 34t-134.5 93.5t-90 138t-32.5 169.5zM303 492q0 -43 15.5 -81t43 -66t63.5 -43t79 -15h198v205q0 86 -57 144t-141 58 q-86 0 -143.5 -58t-57.5 -144zM330 492q0 74 50 124t124 50q72 0 122 -50.5t50 -123.5v-179h-172q-74 0 -124 51.5t-50 127.5zM358 492q0 -63 42 -106.5t104 -43.5h143v150q0 61 -42 103t-101 42q-61 0 -103.5 -42t-42.5 -103z" />
<glyph unicode="H" horiz-adv-x="1028" d="M55 2v1296h330v-342q33 8 70.5 16.5t72.5 8.5q98 0 185.5 -39t152 -105.5t101.5 -155.5t37 -189v-490h-330v490q0 61 -43 103t-103 42q-59 0 -101 -42t-42 -103v-490h-330zM84 31h274v461q0 74 49.5 124t120.5 50q72 0 123 -50.5t51 -123.5v-461h275v461q0 94 -35 178 t-96.5 147.5t-143.5 99t-174 35.5q-90 0 -170 -34v352h-274v-1239zM111 57v1186h221v-371q90 52 196 52q88 0 165 -34t134.5 -93.5t90 -138t32.5 -166.5v-435h-221v435q0 86 -58.5 144t-142.5 58t-140 -58t-56 -144v-435h-221z" />
<glyph unicode="I" horiz-adv-x="356" d="M39 2v948h280v-948h-280zM63 29h232v895h-232v-895zM96 55v840h166v-840h-166z" />
<glyph unicode="J" horiz-adv-x="665" d="M20 23h154q59 0 98 43t39 104v809h307v-809q0 -100 -34.5 -188t-94 -155t-141.5 -105.5t-174 -38.5h-154v340zM45 -6v-285h129q86 0 163 37t133 99.5t89 146.5t33 178v780h-256v-780q0 -74 -46 -125t-116 -51h-129zM72 -33h102q80 0 134 58.5t54 144.5v752h205v-752 q0 -90 -30.5 -168t-84 -137.5t-125 -93t-153.5 -33.5h-102v229z" />
<glyph unicode="K" horiz-adv-x="1034" d="M57 2v1296h332v-661q63 22 137 22h6q59 0 101.5 43t42.5 109v170h330v-170q0 -193 -113 -322q113 -131 113 -317v-170h-330v170q0 61 -42 104t-102 43q-59 0 -101 -43t-42 -104v-170h-332zM86 31h274v141q0 74 50.5 125t121.5 51q72 0 122.5 -51t50.5 -125v-141h274v141 q0 92 -34 176t-89 144q55 61 89 143t34 176v141h-274v-141q0 -78 -50.5 -128t-122.5 -50q-47 0 -89 -10.5t-83 -26.5v674h-274v-1239zM113 57v1186h221v-690q90 51 198 51q84 0 141.5 59.5t57.5 147.5v113h221v-113q0 -98 -35.5 -179t-99.5 -140q63 -59 99 -141.5t36 -178.5 v-115h-221v115q0 43 -15.5 80t-42 64.5t-63.5 44t-78 16.5t-77.5 -16.5t-63 -44t-42 -64.5t-15.5 -80v-115h-221z" />
<glyph unicode="L" horiz-adv-x="362" d="M41 2v1296h283v-1296h-283zM66 31h233v1239h-233v-1239zM98 57v1186h166v-1186h-166z" />
<glyph unicode="M" horiz-adv-x="1746" d="M51 2v475q0 96 39 182t106.5 150.5t157.5 102.5t193 38q98 0 179 -29.5t146 -84.5q134 114 324 114q104 0 195.5 -38t159 -102.5t106.5 -150.5t39 -182v-475h-348v475q0 59 -43 100t-109 41q-61 0 -105 -40.5t-44 -100.5v-475h-347v475q0 59 -45 100t-108 41 q-61 0 -105.5 -40.5t-44.5 -100.5v-475h-346zM80 29h289v448q0 72 51 120t127 48q78 0 130 -48t52 -120v-448h289v448q0 72 51 120t127 48q78 0 129 -48t51 -120v-448h291v448q0 92 -37 173t-101.5 141.5t-150.5 96.5t-182 36q-94 0 -178 -34t-146 -91q-61 57 -144 91 t-181 34q-96 0 -181 -36t-148.5 -96.5t-100.5 -141.5t-37 -173v-448zM109 55v422q0 86 33.5 162t93 133t139.5 90t172 33q100 0 183 -35t142 -100q59 66 142.5 100.5t181.5 34.5q92 0 172 -33t140.5 -90t95 -133t34.5 -162v-422h-233v422q0 82 -59.5 138.5t-149.5 56.5 q-43 0 -81 -15.5t-65.5 -41t-44 -61.5t-16.5 -77v-422h-231v422q0 82 -61.5 138.5t-149.5 56.5q-43 0 -81 -15.5t-65.5 -41t-44 -61.5t-16.5 -77v-422h-231z" />
<glyph unicode="N" horiz-adv-x="1046" d="M49 0v475q0 98 37 184t101.5 150.5t151.5 101.5t185 37t184.5 -37t151 -101.5t101 -150.5t36.5 -184v-475h-329v475q0 59 -42 101t-102 42q-59 0 -101 -41.5t-42 -101.5v-475h-332zM78 27h274v448q0 35 13.5 65.5t37 54t54 37t67.5 13.5q72 0 122 -49t50 -121v-448h275 v448q0 92 -35 173t-96.5 141.5t-142.5 96.5t-173 36t-174 -36t-142.5 -96.5t-95 -141.5t-34.5 -173v-448zM104 55v420q0 86 33 162t89.5 133t133 90t164.5 33q86 0 163 -33t134.5 -90t90 -133t32.5 -162v-420h-221v420q0 82 -57.5 139.5t-141.5 57.5t-141 -57.5t-57 -139.5 v-420h-222z" />
<glyph unicode="O" horiz-adv-x="1030" d="M41 473q0 98 37 184t101.5 150.5t151.5 101.5t185 37t184 -37t150.5 -101.5t101.5 -150.5t37 -184t-37 -185t-101.5 -151.5t-150.5 -101.5t-184 -37t-185 37t-151.5 101.5t-101.5 151.5t-37 185zM70 473q0 -92 34.5 -174t95 -142.5t142.5 -96t174 -35.5t173 35.5 t142.5 96t96.5 142.5t35 174t-35 173t-96.5 142.5t-142.5 96.5t-173 35t-174 -35t-142.5 -96.5t-95 -142.5t-34.5 -173zM96 473q0 86 33 163t89 134t133 90t165 33q86 0 163 -33t134 -90t90 -134t33 -163t-33 -163t-90 -134t-134 -90t-163 -33q-88 0 -165 33t-133 90 t-89 134t-33 163zM315 473q0 -86 57.5 -142.5t143.5 -56.5q84 0 141.5 56.5t57.5 142.5q0 41 -15.5 77t-42 63.5t-63.5 43t-78 15.5q-43 0 -79 -15.5t-63.5 -43t-43 -63.5t-15.5 -77zM342 473q0 72 50 121t124 49q72 0 122 -49t50 -121q0 -74 -50 -123t-122 -49 q-74 0 -124 49t-50 123zM371 473q0 -61 42 -103t103 -42q59 0 101 42t42 103q0 59 -42 101t-101 42q-61 0 -103 -42t-42 -101z" />
<glyph unicode="P" horiz-adv-x="1021" d="M53 -319v806q0 102 37 191.5t101.5 156t150.5 104.5t184 38t185.5 -38t152 -104.5t101 -155.5t36.5 -192q0 -102 -36.5 -191t-101 -154.5t-151.5 -104.5t-186 -39h-143v-317h-330zM82 -291h274v318h170q92 0 174 35.5t143.5 99t96.5 146.5t35 179t-35 180.5t-96.5 147 t-143.5 98t-174 35.5t-173 -35.5t-141 -98t-95 -146.5t-35 -181v-778zM109 -264v751q0 90 32.5 169t89 137.5t133 92.5t162.5 34q88 0 165 -34t134.5 -92.5t90 -137t32.5 -169.5q0 -90 -32.5 -168.5t-90 -138t-134.5 -93.5t-165 -34h-196v-317h-221zM330 283h196q41 0 78 15 t64.5 43t43 65.5t15.5 80.5t-15.5 80t-43 64.5t-64.5 44t-78 16.5q-84 0 -140 -59.5t-56 -145.5v-204zM356 311v176q0 74 49.5 125.5t120.5 51.5q72 0 123 -51.5t51 -125.5q0 -76 -51 -126t-123 -50h-170zM383 338h143q59 0 102.5 43t43.5 106q0 61 -43 105.5t-103 44.5 q-59 0 -101 -44t-42 -106v-149z" />
<glyph unicode="Q" horiz-adv-x="1019" d="M20 487q0 102 37 191.5t101.5 156t151 104.5t184.5 38t185 -38t151.5 -104.5t101.5 -155.5t37 -192v-806h-330v317h-145q-98 0 -184.5 39t-151 104.5t-101.5 154.5t-37 191zM49 487q0 -96 35 -179t95.5 -146.5t141 -99t173.5 -35.5h174v-318h274v778q0 96 -35 180.5 t-96 147t-143 98t-174 35.5t-173 -35.5t-141.5 -98t-95.5 -146.5t-35 -181zM76 487q0 90 32.5 169t89 137.5t133.5 92.5t163 34q88 0 164.5 -34t134 -92.5t90 -137t32.5 -169.5v-751h-221v317h-200q-86 0 -163 34t-133.5 93.5t-89 138t-32.5 168.5zM297 487 q0 -43 15.5 -80.5t42 -65.5t62.5 -43t77 -15h200v204q0 43 -15 80t-43 64.5t-64.5 44t-77.5 16.5q-84 0 -140.5 -59.5t-56.5 -145.5zM324 487q0 74 49 125.5t121 51.5t123 -51.5t51 -125.5v-176h-174q-72 0 -121 50.5t-49 125.5zM350 487q0 -63 42 -106t102 -43h145v149 q0 61 -43 105.5t-102 44.5t-101.5 -44t-42.5 -106z" />
<glyph unicode="R" horiz-adv-x="667" d="M45 2v475q0 96 35 182t95.5 150.5t140 102.5t171.5 38h158v-332h-158q-55 0 -94 -40.5t-39 -100.5v-475h-309zM70 29h260v448q0 72 46 120t111 48h131v279h-131q-86 0 -161.5 -36t-133 -96.5t-90 -141.5t-32.5 -173v-448zM94 55v422q0 86 31 162t85 133t126 90t151 33 h107v-223h-107q-78 0 -130 -56.5t-52 -138.5v-422h-211z" />
<glyph unicode="S" horiz-adv-x="1044" d="M49 631q0 68 24.5 126t67.5 101t100.5 67.5t125.5 24.5h553v-332h-127q90 -35 147 -113.5t57 -180.5q0 -68 -25.5 -126.5t-68.5 -102.5t-101.5 -68.5t-125.5 -24.5h-551v330h123q-90 35 -144.5 114.5t-54.5 184.5zM76 631q0 -61 22.5 -114.5t62.5 -93.5t92 -62.5 t114 -22.5h309q18 0 18 -14q0 -18 -18 -19h-524v-276h524q61 0 114.5 22.5t93.5 62.5t62.5 94t22.5 116q0 59 -22.5 112t-62.5 92t-93.5 61.5t-114.5 22.5h-309q-6 0 -11.5 6.5t-5.5 12.5q0 14 17 14h526v279h-526q-61 0 -113.5 -22.5t-92.5 -62.5t-62.5 -93.5t-22.5 -114.5 zM102 631q0 55 20.5 103t56.5 84t84 56.5t104 20.5h499v-223h-499q-16 0 -29.5 -11.5t-13.5 -29.5q0 -16 13 -30.5t30 -14.5h309q55 0 103 -20.5t85 -56.5t57.5 -83t20.5 -102t-20.5 -104.5t-57.5 -86.5t-85 -57.5t-103 -20.5h-498v221h498q18 0 31.5 12.5t13.5 35.5 q0 16 -13.5 28.5t-31.5 12.5h-309q-55 0 -103.5 20.5t-84.5 56t-56.5 84.5t-20.5 105z" />
<glyph unicode="T" horiz-adv-x="679" d="M51 492v806h309v-479h289v-340h-289q4 -59 42 -98t92 -39h155v-340h-155q-92 0 -172 39t-140.5 104.5t-95.5 154.5t-35 192zM76 492q0 -96 32.5 -179.5t90 -147t133.5 -99t162 -35.5h129v282h-129q-68 0 -114 51.5t-46 127.5v16h289v283h-289v479h-258v-778zM100 492v751 h209v-479h289v-229h-289v-43q0 -43 14.5 -81t39 -66t58.5 -43t73 -15h104v-230h-104q-80 0 -152 34t-126 93.5t-85 138t-31 169.5z" />
<glyph unicode="U" horiz-adv-x="1050" d="M51 477v473h330v-473q0 -61 42 -103t101 -42t102.5 42t43.5 103v473h329v-473q0 -98 -36.5 -185t-101 -151.5t-151.5 -101.5t-186 -37q-98 0 -184 37t-150.5 101.5t-101.5 151.5t-37 185zM80 477q0 -92 35 -174t95 -143.5t141 -96t173 -34.5t174 34.5t143.5 96 t96.5 143.5t35 174v447h-275v-447q0 -74 -51 -123t-123 -49t-121 49t-49 123v447h-274v-447zM106 477v418h222v-418q0 -86 56 -143.5t140 -57.5t142.5 57.5t58.5 143.5v418h221v-418q0 -86 -32.5 -162.5t-90 -134t-134.5 -91.5t-165 -34q-86 0 -162.5 34t-133 91.5 t-89.5 134t-33 162.5z" />
<glyph unicode="V" horiz-adv-x="1142" d="M20 956h379l113 -219q12 -25 18.5 -37t10.5 -21t11 -20.5t19 -35.5q2 0 3 5t4 7q20 41 46.5 90t51 94t44 82t30.5 55h374l-553 -1060zM68 930l503 -971l506 971h-313q-10 -18 -27.5 -52t-40 -77t-47 -89t-45.5 -89l-33 -62q-14 25 -24 44.5t-19.5 38t-19.5 36.5t-23 43 l-104 207h-313zM111 903h254l98 -192l108 -209l56 108q20 41 43.5 85t45 84t38 73t26.5 51h254l-463 -887z" />
<glyph unicode="W" horiz-adv-x="1761" d="M57 475v473h349v-473q0 -61 43 -103t106 -42t108.5 42t45.5 103v473h346v-473q0 -61 44 -103t105 -42q66 0 109 42t43 103v473h348v-473q0 -98 -39 -185t-106.5 -151.5t-158.5 -101.5t-196 -37q-92 0 -176 29.5t-147 83.5q-63 -53 -147.5 -83t-178.5 -30 q-104 0 -194.5 37t-158 101.5t-106.5 151.5t-39 185zM86 475q0 -92 37 -174t100.5 -142.5t149.5 -96t182 -35.5q98 0 180 31.5t146 91.5q61 -59 143 -91t180 -32q96 0 182.5 35.5t151 96t101 142.5t36.5 174v447h-291v-447q0 -74 -51 -123t-129 -49q-76 0 -127 49t-51 123 v447h-289v-447q0 -74 -52 -123t-130 -49q-76 0 -127 49t-51 123v447h-291v-447zM113 475v418h235v-418q0 -43 16.5 -79t44 -62.5t65.5 -42t81 -15.5t82 15.5t67.5 42t45 62.5t16.5 79v418h231v-418q0 -43 16.5 -79t44 -62.5t65.5 -42t81 -15.5q88 0 148.5 56.5t60.5 142.5 v418h234v-418q0 -86 -35 -162.5t-95.5 -134t-140.5 -90.5t-172 -33q-98 0 -181 35t-142 100q-125 -135 -326 -135q-92 0 -172 33t-140.5 90.5t-95 134t-34.5 162.5z" />
<glyph unicode="X" horiz-adv-x="1075" d="M63 0v330h168q59 0 100.5 42t41.5 103q0 59 -41 101t-101 42h-168v330h168q88 0 167 -28.5t141 -85.5q126 114 306 114h3h164v-330h-164q-59 0 -102.5 -41.5t-43.5 -101.5q0 -61 43 -103t103 -42h164v-330h-164q-90 0 -170 29.5t-139 83.5q-59 -53 -139.5 -83t-168.5 -30 h-168zM92 27h139q90 0 169 31.5t139 91.5q59 -59 137 -91t172 -32h137v276h-137q-72 0 -122 49t-50 123q0 35 13 65.5t37 54t54.5 37t67.5 13.5h137v277h-137q-92 0 -171 -34t-138 -89q-59 55 -139.5 89t-168.5 34h-139v-277h139q72 0 120 -49t48 -121q0 -74 -48 -123 t-120 -49h-139v-276zM119 55v221h112q82 0 139.5 56.5t57.5 142.5q0 82 -57.5 139.5t-139.5 57.5h-112v221h112q92 0 171 -35t137 -100q59 66 137 100.5t172 34.5h110v-221h-110q-84 0 -141.5 -57.5t-57.5 -139.5q0 -86 57.5 -142.5t141.5 -56.5h110v-221h-110 q-190 0 -309 135q-57 -66 -136 -100.5t-172 -34.5h-112z" />
<glyph unicode="Y" horiz-adv-x="1044" d="M41 489v490h332v-490q0 -63 42 -106t101 -43t101 43t42 106v490h330v-809q0 -100 -37 -188t-100.5 -155t-150.5 -105.5t-185 -38.5h-166v340h25q-72 23 -133.5 67.5t-106.5 106t-69.5 136.5t-24.5 156zM70 489q0 -96 34.5 -179t96 -146.5t142.5 -99t173 -35.5 q35 0 64.5 4t62.5 14q-25 -23 -58.5 -38t-68.5 -15h-139v-285h139q92 0 174 37t142.5 99.5t95.5 146.5t35 178v780h-275v-461q0 -76 -50 -126t-122 -50t-122 50.5t-50 125.5v461h-274v-461zM96 489v433h221v-433q0 -43 15.5 -80.5t42 -65.5t63.5 -43t78 -15t78 15t63.5 43 t42 65.5t15.5 80.5v433h221v-752q0 -90 -33 -168t-90 -137.5t-133 -93t-164 -33.5h-110v229h110q66 0 116 35t70 98q-41 -20 -89 -32.5t-97 -12.5q-86 0 -163 34t-134 93.5t-90 138t-33 168.5z" />
<glyph unicode="Z" horiz-adv-x="1183" d="M51 0l121 172l158 217v-2q39 59 81 118.5t83 112.5h-377v330h1016l-121 -174l-158 -215h2q-41 -59 -82 -117.5t-80 -111.5h375v-330h-1018zM102 27h940v276h-401q41 59 93 130t100 140l155 215l92 134h-936v-277h400q-41 -59 -93.5 -131t-99.5 -141l-157 -217zM156 55 l59 84l160 219v-2q49 72 100 145.5t98 133.5l27 37h-428v221h858l-61 -88l-158 -217v2q-53 -80 -110.5 -160t-102.5 -139v2q-6 -6 -6 -8q2 0 0 -2v2v-2l-4 -7h428v-221h-860z" />
<glyph unicode="a" horiz-adv-x="1028" d="M45 467q0 96 37 180t99.5 147.5t147.5 99.5t181 36t181 -36t147.5 -99.5t98.5 -147.5t36 -180v-465h-463q-96 0 -181 36t-147.5 99.5t-99.5 148.5t-37 181zM74 467q0 -90 34.5 -170t94 -139.5t138.5 -94t169 -34.5h436v438q0 90 -33.5 169t-93 138.5t-139.5 94t-170 34.5 t-169 -34.5t-138.5 -94t-94 -138.5t-34.5 -169zM100 467q0 84 33 158.5t88 130t130 87t159 31.5q86 0 160.5 -31.5t130 -87t87.5 -130t32 -158.5v-412h-410q-84 0 -159 33t-130 88t-88 130t-33 161zM315 467q0 -82 55.5 -139.5t139.5 -57.5h192v197q0 80 -56 135t-136 55 q-84 0 -139.5 -55t-55.5 -135zM342 467q0 70 48 117t120 47q70 0 118 -47t48 -117v-168h-166q-72 0 -120 48t-48 120zM369 467q0 -59 41 -100t100 -41h137v141q0 57 -40 97t-97 40q-59 0 -100 -40t-41 -97z" />
<glyph unicode="b" horiz-adv-x="1009" d="M57 477v791h324v-312h141q96 0 181 -37.5t147.5 -102t98.5 -151.5t36 -188q0 -98 -36 -186t-98.5 -152.5t-147.5 -102.5t-181 -38t-181 38t-147.5 102.5t-99.5 152.5t-37 186zM84 477q0 -92 35 -174t94 -143.5t139 -97t170 -35.5t170 35.5t139.5 97t93 143.5t33.5 174 q0 94 -33.5 176t-93 143.5t-139.5 96.5t-170 35h-168v311h-270v-762zM113 477v735h215v-313h194q84 0 159 -32.5t130 -90t88 -134.5t33 -165t-33 -164.5t-88 -134t-130 -91.5t-159 -34t-158.5 34t-130 91.5t-88 134t-32.5 164.5zM328 477q0 -84 55 -141t139 -57q39 0 75 15 t61.5 41.5t41 63.5t15.5 78t-15.5 78t-41 63.5t-61.5 42t-75 15.5h-194v-199zM354 477v170h168q70 0 117 -49t47 -121t-47 -121t-117 -49q-72 0 -120 49.5t-48 120.5zM381 477q0 -59 41 -101t100 -42q57 0 97 42t40 101t-39.5 101.5t-97.5 42.5h-141v-144z" />
<glyph unicode="c" d="M45 465q0 86 33.5 173t101.5 155t153 102.5t173 34.5t173 -35t150 -102l115 -115l-207 -213l209 -215l-117 -113q-66 -63 -151.5 -99t-171.5 -36q-90 0 -174 34t-152 103q-68 66 -101.5 151t-33.5 175zM72 465q0 -86 31.5 -166t97.5 -141q63 -63 143 -96t162 -33 q80 0 161 32.5t144 96.5l94 92l-186 194l-98 -96q-43 -49 -115 -49q-35 0 -63.5 13.5t-55.5 35.5h2q-25 25 -37 56.5t-12 64.5q0 63 47 111q55 51 119 51q66 0 119 -49h-2l96 -95l186 193l-92 94q-63 63 -143 96t-164 33q-86 0 -165 -33t-142 -96q-63 -66 -95 -145.5 t-32 -163.5zM100 465q0 78 29 154t88 135t135 89.5t154 30.5t152.5 -30.5t134.5 -89.5l75 -76l-149 -152l-78 76q-29 29 -63.5 42t-71.5 13t-73 -14t-64 -43q-55 -53 -56 -131q0 -39 13.5 -75t42.5 -64q59 -59 137 -60q82 0 135 60l78 76l149 -154l-75 -74q-59 -61 -134 -92 t-153 -31t-154 31t-135 92q-59 59 -88 133t-29 154zM367 469q0 -61 41 -102v2q43 -43 98 -43q59 0 94 39l102 100l-98 100v-2q-41 41 -98 41q-55 0 -98 -43q-41 -39 -41 -92z" />
<glyph unicode="d" horiz-adv-x="1009" d="M25 481q0 100 36.5 187.5t99 152t147.5 102.5t181 38h138v309h325v-789q0 -98 -35.5 -186t-99 -152.5t-147.5 -102.5t-181 -38q-96 0 -181 38t-147.5 102.5t-99 152.5t-36.5 186zM51 481q0 -92 35 -174t94.5 -143.5t139 -97t169.5 -35.5t169 35.5t138.5 97t94.5 143.5 t35 174v760h-273v-309h-164q-90 0 -169.5 -36t-139 -97.5t-94.5 -143.5t-35 -174zM80 481q0 88 32.5 165t88 134.5t130.5 90t158 32.5h193v311h217v-733q0 -88 -32.5 -164.5t-88 -134t-130.5 -91.5t-159 -34t-158.5 34t-130 91.5t-88 134t-32.5 164.5zM295 481 q0 -84 55 -142t139 -58q39 0 75 15t61.5 43t41 64.5t15.5 77.5v199h-193q-84 0 -139 -57.5t-55 -141.5zM322 481q0 72 48 121t119 49h164v-170q0 -72 -47 -123t-117 -51q-72 0 -119.5 51.5t-47.5 122.5zM348 481q0 -59 41 -102t100 -43q57 0 97.5 43t40.5 102v142h-138 q-59 0 -100 -41t-41 -101z" />
<glyph unicode="e" horiz-adv-x="987" d="M45 461q0 90 35 175t102 152q68 70 152 104t174 34q86 0 172 -36t151 -99l117 -113l-215 -217l215 -215l-117 -113q-66 -61 -150.5 -98t-172.5 -37q-92 0 -176 35t-150 102q-68 68 -102.5 154t-34.5 172zM74 461q0 -84 31.5 -163t95.5 -144v2q61 -66 141 -98.5t166 -32.5 q84 0 164 33.5t141 95.5l96 94l-190 192l-94 -94q-37 -41 -88 -47l372 377l-96 94q-63 63 -144 96t-161 33q-86 0 -165 -32.5t-142 -98.5v2q-63 -63 -95 -143t-32 -166zM100 461q0 78 30 153.5t89 135.5q59 61 135 91.5t154 30.5t152.5 -30.5t134.5 -91.5l75 -74l-401 -406 h41q35 0 69.5 13.5t63.5 42.5l76 75l151 -153l-75 -74q-59 -59 -133 -90t-154 -31q-82 0 -155.5 31t-133.5 90q-59 59 -89 134t-30 153zM315 444.5q0 -8.5 4 -18.5l226 225q-10 2 -20.5 3t-20.5 1q-78 0 -133 -55t-56 -137v-18.5zM344 489q8 51 47 91h-2q37 37 88 47z" />
<glyph unicode="f" horiz-adv-x="675" d="M55 2v791q0 98 34 185t93.5 151.5t139 102.5t170.5 38h151v-334h-151q-53 0 -90 -39t-42 -94h283v-334h-283v-467h-305zM82 31h254v465h282v278h-282v19q0 72 45 121t111 49h126v278h-126q-84 0 -159 -35t-130.5 -96t-88 -143t-32.5 -174v-762zM106 57v736q0 86 30 162.5 t82 134t123 91t151 33.5h100v-223h-100q-78 0 -130.5 -57t-52.5 -141v-45h283v-224h-283v-467h-203z" />
<glyph unicode="g" horiz-adv-x="1013" d="M35 481q0 100 37 187.5t99 152t147.5 102.5t181.5 38t181 -38t147.5 -102.5t98.5 -151.5t36 -188v-311q0 -100 -36 -187t-98.5 -151.5t-147.5 -102.5t-181 -38h-164v336h16q-70 25 -128 68.5t-100 103t-65.5 131t-23.5 151.5zM63 481q0 -92 35 -174t94.5 -143.5 t138.5 -97t169 -35.5h92q-43 -33 -92 -33h-138v-281h138q90 0 170 36t139 97.5t93 144.5t34 175v311q0 92 -34 174t-93 143.5t-139 97.5t-170 36t-169 -36t-138.5 -97.5t-94.5 -143.5t-35 -174zM90 481q0 88 33 165t88 134.5t130 90t159 32.5q86 0 160.5 -32.5t130 -90 t87 -134.5t31.5 -165v-311q0 -88 -31.5 -165t-87 -134t-130 -91t-160.5 -34h-111v223h111q47 0 89 27t70 61h-159q-84 0 -159 34t-130 91.5t-88 134t-33 164.5zM305 481q0 -84 55.5 -142t139.5 -58h194v200q0 84 -56 141.5t-138 57.5q-84 0 -139.5 -57.5t-55.5 -141.5z M332 481q0 72 48 121t120 49t119 -49t47 -121v-174h-166q-72 0 -120 51t-48 123zM358 481q0 -59 41 -102t101 -43h139v145q0 59 -40 101.5t-99 42.5t-100.5 -42.5t-41.5 -101.5z" />
<glyph unicode="h" horiz-adv-x="1024" d="M66 2v1268h323v-332q37 14 67.5 18.5t71.5 4.5q96 0 181.5 -38t148 -102.5t99 -151.5t36.5 -188v-479h-325v479q0 59 -40 100.5t-100 41.5q-59 0 -99 -41t-40 -101v-479h-323zM92 31h270v450q0 72 47.5 121t118.5 49q72 0 119 -49t47 -121v-450h273v450q0 92 -35 174 t-94.5 143.5t-139.5 97.5t-170 36q-41 0 -85 -9.5t-81 -25.5v344h-270v-1210zM121 57v1157h215v-360q43 23 91 36t101 13q84 0 159 -32.5t131 -90t89 -134.5t33 -165v-424h-217v424q0 84 -56.5 141.5t-138.5 57.5t-137 -57.5t-55 -141.5v-424h-215z" />
<glyph unicode="i" horiz-adv-x="372" d="M39 2v948h280v-948h-280zM63 29h232v895h-232v-895zM96 55v840h166v-840h-166z" />
<glyph unicode="j" horiz-adv-x="661" d="M23 -53h153q55 0 93 42t38 103v787h301v-787q0 -100 -33.5 -187t-92 -152.5t-137.5 -103.5t-169 -38h-153v336zM49 -82v-278h127q84 0 159 35.5t130 97t87 143.5t32 176v760h-250v-760q0 -76 -45 -125t-113 -49h-127zM74 -111h102q78 0 130 58.5t52 144.5v731h201v-731 q0 -88 -29.5 -165t-82 -134t-122 -91t-149.5 -34h-102v221z" />
<glyph unicode="k" horiz-adv-x="1026" d="M66 2v1268h323v-647q65 24 135 24h6q57 0 97.5 42t40.5 104v168h325v-168q0 -92 -28.5 -171t-81.5 -141q53 -61 81.5 -141t28.5 -170v-168h-325v168q0 59 -40 101t-98 42q-59 0 -100 -42t-41 -101v-168h-323zM92 31h270v139q0 72 48.5 122t119.5 50q70 0 117 -50t47 -122 v-139h273v139q0 90 -33 171t-88 140q55 59 88 139t33 173v139h-273v-139q0 -74 -47 -123t-117 -49q-41 0 -86 -11.5t-82 -25.5v657h-270v-1210zM121 57v1157h215v-673q90 51 194 51q39 0 75 15.5t61.5 43t41 63.5t15.5 79v110h217v-110q0 -96 -35 -174t-100 -138 q66 -57 100.5 -138t34.5 -173v-113h-217v113q0 41 -15.5 78t-41 64.5t-61.5 43t-75 15.5q-84 0 -139 -58.5t-55 -142.5v-113h-215z" />
<glyph unicode="l" horiz-adv-x="374" d="M41 2v1296h283v-1296h-283zM66 31h233v1239h-233v-1239zM98 57v1186h166v-1186h-166z" />
<glyph unicode="m" horiz-adv-x="1730" d="M59 2v465q0 96 38 180t104.5 147.5t154.5 99.5t191 36q98 0 176 -25.5t141 -85.5q132 111 320 111q100 0 189 -36t155.5 -99.5t104.5 -147.5t38 -180v-465h-342v465q0 57 -42 97t-103 40t-104.5 -40t-43.5 -97v-465h-340v465q0 57 -43 97t-106 40q-59 0 -101.5 -40 t-42.5 -97v-465h-344zM88 29h287v438q0 70 50 117t122 47q76 0 127 -47t51 -117v-438h283v438q0 70 50 117t126 47q74 0 124 -47t50 -117v-438h284v438q0 90 -35.5 169t-98 138.5t-146.5 94t-178 34.5q-90 0 -174 -33.5t-146 -87.5q-61 53 -143 87t-174 34q-94 0 -178 -34.5 t-146.5 -94t-98.5 -138.5t-36 -169v-438zM117 55v412q0 84 33.5 158.5t92 130t136.5 87t168 31.5q98 0 178 -33.5t139 -97.5q59 63 141.5 97t178.5 34q88 0 167 -31.5t137 -87t92 -130t34 -158.5v-412h-228v412q0 39 -15 73.5t-43 61.5t-64.5 41t-79.5 14q-86 0 -145.5 -55 t-59.5 -135v-412h-225v412q0 80 -59.5 135t-147.5 55q-43 0 -79 -14t-63.5 -41t-43 -61.5t-15.5 -73.5v-412h-229z" />
<glyph unicode="n" horiz-adv-x="1038" d="M55 0v465q0 96 36 180t99.5 147.5t147.5 99.5t180 36t181 -36t147.5 -99.5t99.5 -147.5t37 -180v-465h-326v465q0 57 -39.5 97t-99.5 40q-59 0 -99 -40t-40 -97v-465h-324zM82 27h270v438q0 70 47 117t119 47t119 -47t47 -117v-438h272v438q0 90 -34.5 169t-94 138 t-139.5 94t-170 35t-169 -35t-138 -94t-94 -138t-35 -169v-438zM111 53v412q0 84 31.5 158.5t87 130t130 88t158.5 32.5q86 0 161 -32.5t130 -88t88 -130t33 -158.5v-412h-217v412q0 39 -15.5 74.5t-41 61.5t-61.5 41t-77 15q-82 0 -137 -56t-55 -136v-412h-215z" />
<glyph unicode="o" horiz-adv-x="1017" d="M45 463q0 96 36 180t99.5 147.5t147.5 99.5t180 36t181 -36t147.5 -99.5t99.5 -147.5t37 -180t-37 -181t-99.5 -147.5t-147.5 -99.5t-181 -37t-180 37t-147.5 99.5t-99.5 147.5t-36 181zM72 463q0 -90 34.5 -170t94 -139.5t138.5 -94t169 -34.5t170 34.5t139.5 94 t94 139.5t34.5 170t-34.5 170t-94 139t-139.5 93t-170 34t-169 -34t-138.5 -93t-94 -139t-34.5 -170zM100 463q0 84 32 158.5t87 130t130 88t159 32.5q86 0 160.5 -32.5t130 -88t88.5 -130t33 -158.5t-33 -159t-88.5 -130t-130 -88t-160.5 -33q-84 0 -159 33t-130 88 t-87 130t-32 159zM313 463q0 -82 56.5 -137.5t138.5 -55.5t138 55.5t56 137.5q0 39 -15 74.5t-40.5 61.5t-61.5 41t-77 15t-77 -15t-61.5 -41t-41 -61.5t-15.5 -74.5zM340 463q0 70 48 117t120 47t119 -47.5t47 -116.5q0 -72 -47 -119t-119 -47t-120 47t-48 119zM367 463 q0 -59 41 -99t100 -40t99 39.5t40 99.5q0 57 -40 97t-99 40t-100 -40t-41 -97z" />
<glyph unicode="p" horiz-adv-x="1007" d="M57 -313v790q0 100 36 187.5t99.5 152t147.5 102t180 37.5t181 -37.5t147.5 -102t99.5 -151.5t37 -188q0 -98 -37 -186t-99.5 -152.5t-147.5 -102.5t-181 -38h-139v-311h-324zM84 -287h270v314h166q90 0 170 35.5t139.5 97t94 143.5t34.5 174q0 94 -34.5 176t-94 143.5 t-139.5 96.5t-170 35t-169 -35t-138 -96.5t-94 -143.5t-35 -176v-764zM113 -258v735q0 88 31.5 165t87 134.5t130 90t158.5 32.5t159 -32.5t131 -90t89 -134.5t33 -165t-33 -164.5t-89 -134t-131 -91.5t-159 -34h-192v-311h-215zM328 279h192q82 0 138.5 57t56.5 141 t-56.5 141.5t-138.5 57.5t-137 -57.5t-55 -141.5v-198zM354 307v170q0 72 47.5 121t118.5 49q72 0 119 -49t47 -121t-47 -121t-119 -49h-166zM381 334h139q59 0 99 42t40 101t-39.5 101.5t-99.5 42.5q-59 0 -99 -42t-40 -102v-143z" />
<glyph unicode="q" horiz-adv-x="1007" d="M23 477q0 100 35.5 187.5t99 152t147.5 102t180 37.5t181.5 -37.5t148 -102t99 -151.5t36.5 -188v-790h-325v311h-140q-96 0 -180 38t-147.5 102.5t-99 152.5t-35.5 186zM49 477q0 -92 35 -174t94.5 -143.5t138 -97t168.5 -35.5h166v-314h273v764q0 94 -35 176 t-94.5 143.5t-139.5 96.5t-170 35t-168.5 -35t-138 -96.5t-94.5 -143.5t-35 -176zM78 477q0 88 31.5 165t87 134.5t130 90t158.5 32.5t159 -32.5t131 -90t89 -134.5t33 -165v-735h-217v311h-195q-84 0 -158.5 34t-130 91.5t-87 134t-31.5 164.5zM293 477q0 -84 55 -141 t137 -57h195v198q0 84 -56.5 141.5t-138.5 57.5t-137 -57.5t-55 -141.5zM319 477q0 72 47.5 121t118.5 49q72 0 119 -49t47 -121v-170h-166q-72 0 -119 49.5t-47 120.5zM346 477q0 -59 40 -101t99 -42h140v143q0 59 -40 101.5t-100 42.5q-59 0 -99 -42t-40 -102z" />
<glyph unicode="r" horiz-adv-x="665" d="M51 2v465q0 96 35 180t94.5 147.5t138 99.5t168.5 36h154v-326h-154q-53 0 -91 -40t-38 -97v-465h-307zM78 29h256v438q0 70 44 117t109 47h129v272h-129q-84 0 -158.5 -34.5t-130 -94t-88 -138.5t-32.5 -169v-438zM102 55v412q0 84 31 158.5t83 130t122 87t149 31.5h105 v-217h-105q-76 0 -128 -55t-52 -135v-412h-205z" />
<glyph unicode="s" horiz-adv-x="1030" d="M51 616q0 66 24.5 123.5t66.5 99.5t98.5 66.5t121.5 24.5h543v-326h-119q86 -35 139.5 -112.5t53.5 -176.5q0 -66 -24.5 -123t-66.5 -99t-99.5 -66.5t-122.5 -24.5h-541v324h123q-88 35 -142.5 112.5t-54.5 177.5zM80 616q0 -59 21.5 -111t60.5 -91t90 -60.5t110 -21.5 h304q16 0 16 -17q0 -16 -16 -16h-512v-270h512q59 0 111 22.5t91 61.5t61.5 91t22.5 111t-22.5 111.5t-61.5 90.5t-91 60.5t-111 22.5h-304q-14 0 -14 16q0 14 14 15h517v272h-517q-59 0 -110 -22.5t-90 -61.5t-60.5 -91t-21.5 -112zM106 616q0 55 19.5 102.5t54.5 82.5 t82 54t100 19h490v-217h-490q-16 0 -28 -11t-12 -30q0 -16 12 -29.5t28 -13.5h304q53 0 100 -20.5t83 -55t56.5 -81.5t20.5 -101q0 -53 -20.5 -101t-56.5 -83t-83 -55.5t-100 -20.5h-486v215h486q18 0 30.5 13.5t12.5 31.5q0 16 -12.5 29.5t-30.5 13.5h-304q-53 0 -100 19.5 t-82 54.5t-54.5 82t-19.5 102z" />
<glyph unicode="t" horiz-adv-x="673" d="M53 481v789h305v-467h283v-334h-283q6 -57 42 -95t89 -38h152v-334h-152q-90 0 -168.5 38t-138 102.5t-94.5 152.5t-35 186zM80 481q0 -92 32.5 -174t88 -143.5t130.5 -97t158 -35.5h127v276h-127q-66 0 -110.5 51.5t-44.5 122.5v15h282v278h-282v467h-254v-760zM104 481 v733h203v-466h285v-224h-285v-43q0 -84 52.5 -142t129.5 -58h103v-224h-103q-80 0 -149.5 34t-121.5 91.5t-83 134t-31 164.5z" />
<glyph unicode="u" horiz-adv-x="1036" d="M55 467v463h324v-463q0 -59 40 -100t99 -41t99 41t40 100v463h326v-463q0 -96 -37 -181t-99.5 -148.5t-147.5 -99.5t-181 -36t-180 36t-147.5 99.5t-99.5 148.5t-36 181zM82 467q0 -90 35 -170t94 -139.5t138 -94t169 -34.5t170 34.5t139.5 94t94 139.5t34.5 170v436 h-272v-436q0 -72 -47 -120t-119 -48t-119 48t-47 120v436h-270v-436zM111 467v407h215v-407q0 -82 55 -139.5t137 -57.5t138.5 57.5t56.5 139.5v407h217v-407q0 -86 -33 -161t-89 -130t-131 -88t-159 -33t-158.5 33t-130 88t-87 130t-31.5 161z" />
<glyph unicode="v" horiz-adv-x="1126" d="M20 938h371l170 -328l6 13v-2q20 41 46 89t49.5 93t43 81t29.5 54h371l-545 -1040zM70 911l491 -952l498 952h-309q-10 -18 -27.5 -52t-40.5 -76t-46.5 -88t-43.5 -87l-31 -59q-27 49 -42 81t-40 79l-104 202h-305zM113 885h245l99 -189l104 -204l55 104q20 41 43 85 t43.5 83t37 70.5t26.5 50.5h248l-453 -867z" />
<glyph unicode="w" horiz-adv-x="1732" d="M59 465v463h344v-463q0 -59 43 -100t103 -41q63 0 106 41t43 100v463h340v-463q0 -59 43 -100t103 -41q61 0 104 41t43 100v463h342v-463q0 -96 -39 -181t-104.5 -147.5t-155.5 -99.5t-190 -37q-186 0 -318 111q-66 -59 -142.5 -85t-174.5 -26q-102 0 -191.5 37 t-155 99.5t-104.5 147.5t-39 181zM88 465q0 -90 37 -170t99.5 -139.5t146.5 -94t178 -34.5q92 0 174 33.5t143 86.5q61 -53 145.5 -86.5t172.5 -33.5q94 0 178 34.5t147.5 94t99.5 139.5t36 170v436h-285v-436q0 -72 -50 -120t-126 -48q-74 0 -124 48t-50 120v436h-283v-436 q0 -72 -51 -120t-127 -48q-72 0 -122 48t-50 120v436h-289v-436zM117 465v409h231v-409q0 -82 57.5 -138.5t143.5 -56.5q88 0 146.5 56.5t58.5 138.5v409h227v-409q0 -41 15.5 -77t43 -61.5t64.5 -41t80 -15.5t79.5 15.5t64.5 41t44.5 61.5t16.5 77v409h227v-409 q0 -84 -34 -159t-92 -131t-137 -89t-169 -33q-94 0 -176 35t-142 98q-59 -63 -139 -98t-178 -35q-90 0 -168 33t-137.5 89t-93 131t-33.5 159z" />
<glyph unicode="x" horiz-adv-x="1058" d="M66 0v324h163q57 0 97.5 41t40.5 100q0 57 -40 97t-98 40h-163v326h163q176 0 299 -111q59 51 138 81t165 30h162v-326h-162q-59 0 -99 -40t-40 -97q0 -59 40 -100t99 -41h162v-324h-162q-180 0 -303 111q-59 -51 -137 -81t-162 -30h-163zM92 27h137q84 0 163 33.5 t138 86.5q57 -57 134 -88.5t167 -31.5h136v270h-136q-72 0 -119.5 48t-47.5 120q0 70 48 117t119 47h136v272h-136q-90 0 -166.5 -31.5t-134.5 -89.5q-59 53 -138 87t-163 34h-137v-272h137q70 0 117 -47t47 -117q0 -72 -47 -120t-117 -48h-137v-270zM121 53v217h108 q80 0 135.5 56.5t55.5 138.5q0 80 -55.5 136t-135.5 56h-108v217h108q90 0 168 -34.5t133 -98.5q53 63 131 98t170 35h109v-217h-109q-41 0 -76.5 -15t-61 -41t-41 -61.5t-15.5 -74.5q0 -82 56.5 -138.5t137.5 -56.5h109v-217h-109q-92 0 -169.5 35t-131.5 98 q-55 -63 -133 -98t-168 -35h-108z" />
<glyph unicode="y" horiz-adv-x="1028" d="M43 479v479h324v-479q0 -59 41 -102t100 -43q57 0 97 43t40 102v479h326v-790q0 -98 -36 -186t-98.5 -153t-147.5 -102.5t-181 -37.5h-164v336h16q-70 25 -128 68.5t-100 103t-65.5 131t-23.5 151.5zM70 479q0 -92 34.5 -174t94 -143.5t139.5 -97t170 -35.5q59 0 119 16 q-47 -49 -119 -49h-137v-281h137q90 0 170 36t139.5 97.5t93 144.5t33.5 175v762h-272v-451q0 -72 -47 -122t-117 -50q-72 0 -120 50.5t-48 121.5v451h-270v-451zM98 479v422h215v-422q0 -84 55.5 -142t139.5 -58q39 0 74.5 15t61.5 43t41 64.5t15 77.5v422h218v-733 q0 -88 -33 -165t-88.5 -134t-130 -91t-158.5 -34h-111v223h111q66 0 114 36t66 95q-41 -20 -87 -31.5t-93 -11.5q-84 0 -159 34t-130 91.5t-88 134t-33 164.5z" />
<glyph unicode="z" horiz-adv-x="1171" d="M55 0l115 168l156 213h-2q39 55 79.5 111.5t77.5 109.5h-362v326h999l-123 -172v2l-155 -211h2q-39 -57 -79 -113.5t-79 -109.5h367v-324h-996zM109 27h915v270h-395q45 59 94 129t96 137v-2l154 211l90 129h-918v-272h392q-43 -59 -92.5 -128t-96.5 -136v2l-155 -215z M158 53l57 84l156 215v-2q47 70 98 140.5t94 130.5l27 36h-416v217h838l-62 -86l-153 -213v3q-53 -78 -108.5 -156t-100.5 -137v2l-4 -8q2 0 0 -3v3q-2 -4 0 -3l-6 -6h417v-217h-837z" />
<glyph unicode="&#x2000;" horiz-adv-x="682" />
<glyph unicode="&#x2001;" horiz-adv-x="1365" />
<glyph unicode="&#x2002;" horiz-adv-x="682" />
<glyph unicode="&#x2003;" horiz-adv-x="1365" />
<glyph unicode="&#x2004;" horiz-adv-x="455" />
<glyph unicode="&#x2005;" horiz-adv-x="341" />
<glyph unicode="&#x2006;" horiz-adv-x="227" />
<glyph unicode="&#x2007;" horiz-adv-x="227" />
<glyph unicode="&#x2008;" horiz-adv-x="170" />
<glyph unicode="&#x2009;" horiz-adv-x="273" />
<glyph unicode="&#x200a;" horiz-adv-x="75" />
<glyph unicode="&#x202f;" horiz-adv-x="273" />
<glyph unicode="&#x205f;" horiz-adv-x="341" />
<glyph unicode="&#x25fc;" horiz-adv-x="931" d="M0 0v932h932v-932h-932z" />
</font>
</defs>
</svg>
